#define tagCNC_width 16
#define tagCNC_height 16
static unsigned char tagCNC_bits[] = {
   0x00, 0x50, 0x00, 0xc8, 0x00, 0x84, 0xc0, 0x97, 0xe0, 0x93, 0xf0, 0x93,
   0xf8, 0x5f, 0xfc, 0x1f, 0xfe, 0x1f, 0xff, 0x1f, 0xfe, 0x0f, 0xfe, 0x07,
   0xfc, 0x03, 0xf8, 0x01, 0xf0, 0x00, 0x60, 0x00 };
